<svg xmlns="http://www.w3.org/2000/svg" viewBox="0 0 400 400" width="100%" height="100%" fill="none">
  <rect width="400" height="400" fill="#0D1B2A" />

  <circle cx="200" cy="200" r="160" stroke="#D4A843" strokeWidth="2" strokeOpacity="0.15" strokeDasharray="8 4" />
  
  <circle cx="200" cy="200" r="120" stroke="#D4A843" strokeWidth="3" strokeOpacity="0.4" />
  
  <circle cx="200" cy="200" r="80" stroke="#D4A843" strokeWidth="1" strokeOpacity="0.2" />

  <path d="M 40 200 L 360 200" stroke="#D4A843" strokeWidth="1.5" strokeOpacity="0.25" />
  <path d="M 200 40 L 200 360" stroke="#D4A843" strokeWidth="1.5" strokeOpacity="0.25" />
  
  <path d="M 87 87 L 313 313" stroke="#D4A843" strokeWidth="1" strokeOpacity="0.2" strokeDasharray="4 4" />
  <path d="M 87 313 L 313 87" stroke="#D4A843" strokeWidth="1" strokeOpacity="0.2" strokeDasharray="4 4" />

  <circle cx="200" cy="80" r="6" fill="#D4A843" fillOpacity="0.8" />
  <circle cx="200" cy="320" r="6" fill="#D4A843" fillOpacity="0.8" />
  <circle cx="80" cy="200" r="6" fill="#D4A843" fillOpacity="0.8" />
  <circle cx="360" cy="200" r="6" fill="#D4A843" fillOpacity="0.8" />
  
  <circle cx="200" cy="200" r="12" fill="#D4A843" fillOpacity="0.9" />
  <circle cx="200" cy="200" r="24" stroke="#D4A843" strokeWidth="1.5" strokeOpacity="0.6" />

  <path d="M 70 50 L 50 50 L 50 70" stroke="#D4A843" strokeWidth="2" strokeOpacity="0.4" />
  <path d="M 330 50 L 350 50 L 350 70" stroke="#D4A843" strokeWidth="2" strokeOpacity="0.4" />
  <path d="M 70 350 L 50 350 L 50 330" stroke="#D4A843" strokeWidth="2" strokeOpacity="0.4" />
  <path d="M 330 350 L 350 350 L 350 330" stroke="#D4A843" strokeWidth="2" strokeOpacity="0.4" />
</svg>
